<svg xmlns="http://www.w3.org/2000/svg" viewBox="0 0 256 256"><defs><linearGradient id="bg" x1="0.06" y1="0.08" x2="0.92" y2="0.86"><stop offset="0%" stop-color="#c02cff"/><stop offset="46%" stop-color="#5632ff"/><stop offset="100%" stop-color="#1ba0ff"/></linearGradient><clipPath id="clip"><path d="M58 51l63-34c13-7 29-10 44-9h40c31 0 51 7 64 20c14 14 20 33 20 64v70c0 32-6 51-20 65c-14 14-33 20-65 20h-91c-28 0-46-7-60-21c-14-14-20-31-21-60V116c0-27 7-48 26-65z"/></clipPath></defs><path d="M58 51l63-34c13-7 29-10 44-9h40c31 0 51 7 64 20c14 14 20 33 20 64v70c0 32-6 51-20 65c-14 14-33 20-65 20h-91c-28 0-46-7-60-21c-14-14-20-31-21-60V116c0-27 7-48 26-65z" fill="url(#bg)"/><g clip-path="url(#clip)" transform="matrix(1 -0.22 0 1 30 0)"><rect x="62" y="34" width="56" height="190" rx="10" fill="#ffffff"/><rect x="164" y="34" width="56" height="190" rx="10" fill="#ffffff"/><rect x="104" y="112" width="94" height="42" rx="8" fill="#ffffff"/></g></svg>